
A Korean man is sentenced to death by hanging, but he survives the execution. For the following two hours, his executioners try to work out how to handle the situation in this black farce. 

No hardsubs!

General
Unique ID : 204446151734210780340804655971912981846 (0x99CEE585374DB6ECB3A64EBB7E951D56)
Complete name : Death.By.Hanging.1968.NTSC.DVD.x264-Tree.mkv
Format : Matroska
Format version : Version 2
File size : 1.09 GiB
Duration : 1h 57mn
Overall bit rate : 1 328 Kbps
Encoded date : UTC 2010-06-20 12:21:44
Writing application : mkvmerge v4.0.0 ('The Stars were mine') built on Jun 6 2010 16:18:42
Writing library : libebml v1.0.0 + libmatroska v1.0.0

Video
ID : 1
Format : AVC
Format/Info : Advanced Video Codec
Format profile : High@L3.1
Format settings, CABAC : Yes
Format settings, ReFrames : 16 frames
Codec ID : V_MPEG4/ISO/AVC
Duration : 1h 57mn
Bit rate : 1 102 Kbps
Width : 704 pixels
Height : 348 pixels
Display aspect ratio : 16:9
Frame rate : 23.976 fps
Color space : YUV
Chroma subsampling : 4:2:0
Bit depth : 8 bits
Scan type : Progressive
Bits/(Pixel*Frame) : 0.188
Stream size : 907 MiB (81%)
Title : Video Track
Writing library : x264 core 98 r1649 20cbe10
Encoding settings : cabac=1 / ref=16 / deblock=1:-2:-2 / analyse=0x3:0x133 / me=tesa / subme=10 / psy=1 / psy_rd=1.10:0.05 / mixed_ref=1 / me_range=24 / chroma_me=1 / trellis=2 / 8x8dct=1 / cqm=0 / deadzone=21,11 / fast_pskip=1 / chroma_qp_offset=-3 / threads=6 / sliced_threads=0 / nr=0 / decimate=1 / interlaced=0 / constrained_intra=0 / bframes=12 / b_pyramid=2 / b_adapt=2 / b_bias=0 / direct=3 / weightb=1 / weightp=2 / keyint=250 / keyint_min=25 / scenecut=40 / intra_refresh=0 / rc_lookahead=60 / rc=2pass / mbtree=1 / bitrate=1102 / ratetol=1.0 / qcomp=0.60 / qpmin=10 / qpmax=51 / qpstep=4 / cplxblur=20.0 / qblur=0.5 / ip_ratio=1.40 / aq=1:1.00
Language : Japanese

Audio
ID : 2
Format : AC-3
Format/Info : Audio Coding 3
Mode extension : CM (complete main)
Codec ID : A_AC3
Duration : 1h 57mn
Bit rate mode : Constant
Bit rate : 224 Kbps
Channel(s) : 2 channels
Channel positions : Front: L R
Sampling rate : 48.0 KHz
Bit depth : 16 bits
Compression mode : Lossy
Stream size : 189 MiB (17%)
Title : Audio Track
Language : Japanese

Text
ID : 3
Format : UTF-8
Codec ID : S_TEXT/UTF8
Codec ID/Info : UTF-8 Plain Text
Title : Subtitle Track
Language : English
